<?xml version="1.0" encoding="UTF-8" standalone="no"?>
<!-- Created with Inkscape (http://www.inkscape.org/) -->

<svg
   xmlns:dc="http://purl.org/dc/elements/1.1/"
   xmlns:cc="http://creativecommons.org/ns#"
   xmlns:rdf="http://www.w3.org/1999/02/22-rdf-syntax-ns#"
   xmlns:svg="http://www.w3.org/2000/svg"
   xmlns="http://www.w3.org/2000/svg"
   xmlns:sodipodi="http://sodipodi.sourceforge.net/DTD/sodipodi-0.dtd"
   xmlns:inkscape="http://www.inkscape.org/namespaces/inkscape"
   version="1.1"
   id="svg10"
   xml:space="preserve"
   width="654.66669"
   height="368"
   viewBox="0 0 654.66669 368"
   sodipodi:docname="original_ratings.svg"
   inkscape:version="0.92.2 (5c3e80d, 2017-08-06)"><metadata
     id="metadata16"><rdf:RDF><cc:Work
         rdf:about=""><dc:format>image/svg+xml</dc:format><dc:type
           rdf:resource="http://purl.org/dc/dcmitype/StillImage" /><dc:title /></cc:Work></rdf:RDF></metadata><defs
     id="defs14"><clipPath
       clipPathUnits="userSpaceOnUse"
       id="clipPath36"><path
         d="M 32.965,5.48 H 486.524 V 227.718 H 32.965 Z"
         id="path34"
         inkscape:connector-curvature="0" /></clipPath><clipPath
       clipPathUnits="userSpaceOnUse"
       id="clipPath46"><path
         d="M 32,5 H 487 V 228 H 32 Z"
         id="path44"
         inkscape:connector-curvature="0" /></clipPath></defs><sodipodi:namedview
     pagecolor="#ffffff"
     bordercolor="#666666"
     borderopacity="1"
     objecttolerance="10"
     gridtolerance="10"
     guidetolerance="10"
     inkscape:pageopacity="0"
     inkscape:pageshadow="2"
     inkscape:window-width="1920"
     inkscape:window-height="1017"
     id="namedview12"
     showgrid="false"
     inkscape:zoom="4.478615"
     inkscape:cx="340.87215"
     inkscape:cy="-14.269939"
     inkscape:window-x="-8"
     inkscape:window-y="-8"
     inkscape:window-maximized="1"
     inkscape:current-layer="g74" /><g
     id="g18"
     inkscape:groupmode="layer"
     inkscape:label="original_ratings"
     transform="matrix(1.3333333,0,0,1.3333333,0,9.2e-6)"><g
       id="g20"><path
         d="M 0,0 H 491 V 276 H 0 Z"
         style="fill:#ffffff;fill-opacity:1;fill-rule:nonzero;stroke:none"
         id="path22"
         inkscape:connector-curvature="0" /><path
         d="M 0,0 H 491 V 276 H 0 Z"
         style="fill:#7099e1;fill-opacity:1;fill-rule:nonzero;stroke:none"
         id="path24"
         inkscape:connector-curvature="0" /><g
         id="g26"
         transform="scale(1,-1)"><path
           d="M 0,0 H 491 V -276 H 0 Z"
           style="fill:none;stroke:#7099e1;stroke-width:1.06697798;stroke-linecap:round;stroke-linejoin:round;stroke-miterlimit:10;stroke-dasharray:none;stroke-opacity:1"
           id="path28"
           inkscape:connector-curvature="0" /></g></g><g
       id="g30"><g
         id="g32"
         clip-path="url(#clipPath36)"><g
           id="g38"><g
             id="g40"><g
               id="g42"
               clip-path="url(#clipPath46)"><g
                 id="g48"><g
                   id="g50"
                   transform="scale(1,-1)"><path
                     d="m 53.535,-59.785 0.66,-16.09 0.664,-12.066 0.664,12.066 0.661,12.07 0.664,-20.113 0.66,12.066 0.664,-8.043 0.664,-8.046 0.66,-4.024 0.664,16.09 0.66,20.113 0.664,-16.09 0.664,12.067 0.661,4.023 h 0.664 l 0.66,-8.043 0.664,-24.136 0.664,20.113 0.66,-12.067 0.664,28.157 0.66,-12.067 0.664,-12.07 0.664,40.227 0.661,-24.137 0.664,-8.043 0.66,-20.113 0.664,28.156 0.664,-28.156 0.66,4.023 0.664,16.09 0.66,20.113 0.664,-24.137 0.664,20.114 0.661,-16.09 0.664,24.137 0.66,-36.204 0.664,20.11 0.664,20.113 0.66,-8.043 0.664,-32.18 0.66,24.133 0.664,-16.09 h 0.664 l 0.661,36.204 0.664,-24.137 h 0.66 l 0.664,12.07 0.664,-20.113 h 0.66 l 0.664,12.066 0.66,16.09 0.664,-20.113 0.664,-16.09 0.661,8.047 0.664,8.043 0.66,-16.09 h 0.664 l 0.664,16.09 0.66,12.07 0.664,-12.07 0.66,32.183 0.664,-48.273 0.664,24.137 0.661,-8.047 0.664,-16.09 0.66,16.09 0.664,24.137 0.664,-12.067 0.66,8.043 0.664,12.07 0.66,-40.226 0.664,8.043 0.664,4.023 h 0.661 l 0.664,28.16 0.664,-72.406 0.66,36.203 h 0.664 l 0.66,-16.09 0.664,20.11 0.664,12.07 0.66,24.133 0.664,-20.109 0.661,12.066 0.664,-8.047 0.664,-24.133 0.66,-16.09 0.664,40.223 0.66,-12.066 0.664,8.047 0.664,-16.094 h 0.66 l 0.664,4.023 0.661,-4.023 0.664,24.137 0.664,-12.067 0.66,-24.137 0.664,20.114 h 0.66 l 0.664,-8.047 0.664,-24.133 0.66,20.113 0.664,20.114 0.661,-20.114 0.664,-84.472 0.664,100.562 0.66,-8.047 0.664,32.18 0.66,-44.246 1.328,40.226 0.66,-40.226 0.664,-8.047 0.661,48.273 0.664,-16.089 h 1.324 l 0.664,-4.024 0.66,-24.137 0.664,24.137 0.664,-8.047 0.66,-4.023 0.664,-4.02 0.661,8.043 0.664,-4.023 0.664,20.113 0.66,16.09 0.664,-8.043 0.66,-24.137 h 0.664 l 0.664,20.114 0.66,-8.043 0.664,-4.024 0.661,20.113 1.328,-40.226 0.66,-20.113 0.664,36.203 0.66,-4.024 0.664,16.09 0.664,-40.223 h 0.66 l 0.664,16.09 0.661,32.18 0.664,-36.203 0.664,12.066 0.66,12.071 0.664,8.043 0.66,-16.09 0.664,-12.067 0.664,-4.023 0.66,12.066 0.664,4.024 0.661,32.179 0.664,-48.269 0.664,-12.067 0.66,20.11 0.664,-8.043 0.66,-4.024 0.664,36.204 0.664,-12.067 0.66,20.113 0.664,-48.273 0.661,32.184 0.664,-36.204 0.664,8.043 0.66,40.227 0.664,-28.16 0.66,-4.02 0.664,28.157 0.664,-24.137 0.66,-20.11 0.664,8.043 0.661,8.047 0.664,48.27 0.664,-84.473 0.66,24.133 0.664,52.293 0.66,-76.426 0.664,36.203 0.664,4.02 0.66,4.023 0.664,-20.113 0.661,-4.02 0.664,12.067 0.664,-16.09 h 0.66 l 0.664,-100.562 0.66,108.605 0.664,20.113 0.664,-4.023 0.66,-28.156 0.664,8.046 0.661,12.067 0.664,-4.024 0.664,16.09 0.66,-16.09 h 0.664 l 0.66,24.137 0.664,-8.047 0.664,-24.133 0.66,16.09 0.664,-20.113 0.661,24.133 0.664,-28.156 0.664,20.113 0.66,-28.156 0.664,12.066 0.66,16.09 0.664,-28.156 0.664,36.199 0.66,-16.09 0.664,-4.02 0.661,-32.179 0.664,32.179 0.664,-16.089 h 0.66 l 0.664,8.043 0.66,8.046 0.664,-12.07 0.664,12.07 0.66,-16.089 0.664,-4.024 0.661,4.024 0.664,28.156 0.664,-28.156 0.66,8.043 h 0.664 l 0.66,12.066 0.664,-8.043 0.664,-12.066 0.66,-8.047 0.664,4.023 0.661,4.024 h 0.664 l 0.664,-16.09 0.66,16.09 0.664,-28.161 0.66,52.293 0.664,-24.132 h 0.664 l 0.66,-8.047 0.664,12.066 0.661,-32.18 0.664,24.137 h 0.664 l 0.66,28.156 0.664,-12.066 0.664,-8.047 0.66,-12.066 0.664,4.023 h 0.66 l 0.664,20.113 0.665,-16.089 0.66,28.156 0.664,4.023 0.66,-32.179 0.664,8.043 0.664,-24.133 0.66,12.066 h 0.664 l 0.66,12.067 0.664,-40.223 0.665,16.09 0.66,68.383 0.664,-52.293 0.66,-4.024 0.664,-8.047 0.664,20.114 0.66,-16.09 0.664,4.023 0.66,-4.023 0.664,24.136 0.665,-24.136 0.66,-8.043 0.664,4.019 0.66,12.071 0.664,4.019 0.664,-12.066 0.66,-24.133 h 0.664 l 0.66,32.18 0.664,-12.071 0.665,28.16 0.66,-84.472 0.664,84.472 0.66,-32.179 0.664,12.066 0.664,-4.023 0.66,36.203 0.664,-16.09 0.66,-12.066 0.664,-8.047 h 0.665 l 0.66,-12.067 0.664,16.09 0.66,-4.023 0.664,8.047 0.664,-16.09 0.66,-4.024 0.664,-8.047 0.66,24.137 0.664,-8.047 0.665,-8.043 0.66,20.114 0.664,-4.024 h 0.66 l 0.664,-8.047 0.664,-12.066 0.66,4.023 0.664,-4.023 0.66,40.226 0.664,-12.07 0.665,-4.019 0.66,-12.071 0.664,4.024 0.66,4.023 0.664,-28.156 0.664,24.133 0.66,-16.09 0.664,20.113 h 0.66 l 0.664,-4.023 0.665,4.023 0.66,-4.023 0.664,-12.067 h 0.66 l 0.664,4.024 0.664,-8.047 0.66,12.066 0.664,12.071 0.66,-4.024 0.664,-40.226 0.665,40.226 0.66,8.043 0.664,-16.09 0.66,4.024 0.664,-20.114 0.664,20.114 0.66,4.023 0.664,-8.047 0.66,-28.156 0.664,20.113 0.665,8.043 0.66,-4.019 0.664,4.019 0.66,-4.019 h 0.664 l 0.664,16.09 0.66,4.019 0.664,-8.043 0.66,-20.113 0.664,20.113 0.665,-4.023 0.66,4.023 0.664,-40.226 0.66,28.16 0.664,4.019 0.664,12.071 0.66,-16.09 h 0.664 l 0.66,-8.047 0.664,12.066 0.665,-8.043 0.66,-4.023 0.664,8.047 0.66,-24.137 0.664,48.27 0.664,-20.114 0.66,-20.109 h 0.664 l 0.66,28.156 0.664,-20.113 0.665,20.113 0.66,-20.113 0.664,16.09 0.66,-24.133 0.664,40.223 0.664,-36.204 0.66,4.024 0.664,12.066 0.66,-8.043 h 0.664 l 0.665,4.024 0.66,12.066 0.664,-36.203 0.66,12.066 0.664,16.09 0.664,-4.019 0.66,12.066 0.664,-8.047 0.66,-28.156 0.664,32.18 0.665,8.047 0.66,-44.25 0.664,32.179 0.66,-4.019 0.664,48.269 0.664,-36.203 0.66,-20.113 0.664,-4.024 0.66,24.137 0.664,-12.066 0.665,4.019 0.66,-16.09 0.664,20.114 h 0.66 l 0.664,40.226 0.664,-48.269 0.66,-28.16 0.664,16.089 0.66,40.227 0.664,-16.09 0.665,-20.113 0.66,-28.156 0.664,32.179 0.664,8.043 0.66,4.024 0.664,-28.157 0.66,32.18 0.664,-12.066 h 0.664 l 0.66,8.043 0.665,-24.133 0.66,20.109 0.664,4.024 0.664,-24.133 0.66,-24.137 0.664,44.246 h 0.66 l 0.664,-4.019 0.664,12.066 0.66,-36.203 0.665,20.113 0.66,16.09 h 0.664 l 0.664,-12.066 0.66,8.043 0.664,-32.18 0.66,36.203 0.664,-4.023 0.664,-20.114 0.66,-12.066 0.665,40.227 0.66,-24.137 h 0.664 l 0.664,4.023 0.66,12.067 0.664,-12.067 0.66,-8.047 0.664,20.114 0.664,-12.067 0.66,-12.066 0.665,20.109 h 0.66 l 0.664,-52.293 0.664,36.203 0.66,12.071 h 0.664 l 0.66,12.066 0.664,-12.066 0.664,12.066 0.66,-24.137 0.665,-16.089 0.66,24.136 0.664,-4.023 0.664,16.09 h 0.66 l 0.664,-28.157 h 0.66 l 0.664,16.09 0.664,8.043 0.66,-28.156 0.665,20.113 0.66,8.043 0.664,-8.043 0.664,16.09 0.66,-24.137 0.664,-20.113 0.66,12.07 0.664,20.114 0.664,-16.09 0.66,24.133 0.665,4.023 0.66,-8.047 0.664,4.024 0.664,-4.024 0.66,-16.09 h 0.664 l 0.66,24.137 0.664,24.133 0.664,-44.246 0.66,-20.113 0.665,80.449 0.66,-84.473 0.664,36.203 0.664,-52.293 0.66,28.16 0.664,24.133 0.66,-8.043 0.664,16.09 0.664,-8.047 0.66,4.024 0.665,12.066 0.66,-24.133 0.664,-8.047 0.664,-92.515 0.66,84.472 0.664,36.204 0.66,-16.09 0.664,-8.047 0.664,-16.09 0.66,4.023 0.665,28.157 0.66,4.023 0.664,-16.09 0.664,8.043 0.66,-20.109 0.664,-4.024 0.66,24.133 0.664,-32.179 0.664,32.179 h 0.66 l 0.665,-20.109 h 0.66 l 0.664,12.066 0.664,-20.113 0.66,32.18 0.664,-4.024 0.66,-4.019 0.664,4.019 0.664,-24.133 0.66,8.043 0.665,16.09 0.66,-24.133 0.664,24.133 0.664,-20.109 0.66,44.246 0.664,-20.113 0.66,4.023 0.664,-32.18 0.664,12.067 0.66,-4.024 0.665,12.071 h 0.66 l 0.664,-16.09 0.664,20.109 0.66,-48.269 0.664,76.429 0.66,-40.226 h 0.664 l 0.664,-36.203 0.66,44.25 0.665,-20.114 0.66,36.204 0.664,-40.227 0.664,64.359 0.66,-40.222 0.664,-20.114 0.66,16.09 h 0.664 l 0.664,20.114 0.66,-60.34 0.665,20.113 0.66,16.09 0.664,-4.024 0.664,8.047 0.66,-4.023 h 0.664 l 0.66,4.023 0.664,-24.136 0.664,20.113 0.66,8.047 0.665,-40.227 0.66,32.18 0.664,20.113 0.664,12.067 0.66,-28.157 0.664,4.024 0.66,-28.16 0.664,36.203 0.664,52.293 0.66,-68.383 0.665,4.023 0.664,-4.023 0.66,-12.067 0.664,8.043 0.66,-12.066 0.664,36.203 0.664,-32.18 0.66,-4.023 0.664,32.18 0.66,-16.09 0.665,-16.09 0.664,20.113 0.66,-20.113 0.664,16.09 0.66,20.113 0.664,-4.023 0.664,-24.133 0.66,16.09 0.664,-28.16 0.66,24.136 0.665,-12.066 0.664,-20.113 0.66,44.246 0.664,-24.133 0.66,-20.113 1.328,24.132 0.66,8.047 0.664,-8.047 0.66,12.071 0.665,-28.16 0.664,36.203 0.66,-36.203 0.664,16.089 0.66,4.024 0.664,-8.043 0.664,-12.07 0.66,36.203"
                     style="fill:none;stroke:#dddddd;stroke-width:1.06697798;stroke-linecap:butt;stroke-linejoin:round;stroke-miterlimit:1;stroke-dasharray:none;stroke-opacity:1"
                     id="path52"
                     inkscape:connector-curvature="0" /></g></g></g></g></g><text
           transform="translate(36.359374,192.79688)"
           style="font-variant:normal;font-weight:normal;font-size:12px;font-family:Arial;-inkscape-font-specification:ArialMT;writing-mode:lr-tb;fill:#ffffff;fill-opacity:0.8;fill-rule:nonzero;stroke:none"
           id="text56"><tspan
             x="0"
             y="0"
             id="tspan54">5</tspan></text>
<text
           transform="translate(36.359374,152.57422)"
           style="font-variant:normal;font-weight:normal;font-size:12px;font-family:Arial;-inkscape-font-specification:ArialMT;writing-mode:lr-tb;fill:#ffffff;fill-opacity:0.8;fill-rule:nonzero;stroke:none"
           id="text60"><tspan
             x="0"
             y="0"
             id="tspan58">6</tspan></text>
<text
           transform="translate(36.359374,112.34766)"
           style="font-variant:normal;font-weight:normal;font-size:12px;font-family:Arial;-inkscape-font-specification:ArialMT;writing-mode:lr-tb;fill:#ffffff;fill-opacity:0.8;fill-rule:nonzero;stroke:none"
           id="text64"><tspan
             x="0"
             y="0"
             id="tspan62">7</tspan></text>
<text
           transform="translate(36.359374,72.125005)"
           style="font-variant:normal;font-weight:normal;font-size:12px;font-family:Arial;-inkscape-font-specification:ArialMT;writing-mode:lr-tb;fill:#ffffff;fill-opacity:0.8;fill-rule:nonzero;stroke:none"
           id="text68"><tspan
             x="0"
             y="0"
             id="tspan66">8</tspan></text>
<text
           transform="translate(36.359374,31.898444)"
           style="font-variant:normal;font-weight:normal;font-size:12px;font-family:Arial;-inkscape-font-specification:ArialMT;writing-mode:lr-tb;fill:#ffffff;fill-opacity:0.8;fill-rule:nonzero;stroke:none"
           id="text72"><tspan
             x="0"
             y="0"
             id="tspan70">9</tspan></text>
</g></g><g
       id="g74"><text
         transform="translate(49.535155,240.23828)"
         style="font-variant:normal;font-weight:normal;font-size:12px;font-family:Arial;-inkscape-font-specification:ArialMT;writing-mode:lr-tb;fill:#ffffff;fill-opacity:0.8;fill-rule:nonzero;stroke:none"
         id="text78"><tspan
           x="0"
           y="0"
           id="tspan76">0</tspan></text>
<text
         transform="translate(175.35937,240.23828)"
         style="font-variant:normal;font-weight:normal;font-size:12px;font-family:Arial;-inkscape-font-specification:ArialMT;writing-mode:lr-tb;fill:#ffffff;fill-opacity:0.8;fill-rule:nonzero;stroke:none"
         id="text82"><tspan
           x="0"
           y="0"
           id="tspan80">2</tspan></text>
<text
         transform="translate(182.03136,240.23828)"
         style="font-variant:normal;font-weight:normal;font-size:12px;font-family:Arial;-inkscape-font-specification:ArialMT;writing-mode:lr-tb;fill:#ffffff;fill-opacity:0.8;fill-rule:nonzero;stroke:none"
         id="text86"><tspan
           x="0"
           y="0"
           id="tspan84">0</tspan></text>
<text
         transform="translate(188.70336,240.23828)"
         style="font-variant:normal;font-weight:normal;font-size:12px;font-family:Arial;-inkscape-font-specification:ArialMT;writing-mode:lr-tb;fill:#ffffff;fill-opacity:0.8;fill-rule:nonzero;stroke:none"
         id="text90"><tspan
           x="0"
           y="0"
           id="tspan88">0</tspan></text>
<text
         transform="translate(307.86327,240.23828)"
         style="font-variant:normal;font-weight:normal;font-size:12px;font-family:Arial;-inkscape-font-specification:ArialMT;writing-mode:lr-tb;fill:#ffffff;fill-opacity:0.8;fill-rule:nonzero;stroke:none"
         id="text94"><tspan
           x="0"
           y="0"
           id="tspan92">4</tspan></text>
<text
         transform="translate(314.53527,240.23828)"
         style="font-variant:normal;font-weight:normal;font-size:12px;font-family:Arial;-inkscape-font-specification:ArialMT;writing-mode:lr-tb;fill:#ffffff;fill-opacity:0.8;fill-rule:nonzero;stroke:none"
         id="text98"><tspan
           x="0"
           y="0"
           id="tspan96">0</tspan></text>
<text
         transform="translate(321.20727,240.23828)"
         style="font-variant:normal;font-weight:normal;font-size:12px;font-family:Arial;-inkscape-font-specification:ArialMT;writing-mode:lr-tb;fill:#ffffff;fill-opacity:0.8;fill-rule:nonzero;stroke:none"
         id="text102"><tspan
           x="0"
           y="0"
           id="tspan100">0</tspan></text>
<text
         transform="translate(440.36327,240.23828)"
         style="font-variant:normal;font-weight:normal;font-size:12px;font-family:Arial;-inkscape-font-specification:ArialMT;writing-mode:lr-tb;fill:#ffffff;fill-opacity:0.8;fill-rule:nonzero;stroke:none"
         id="text106"><tspan
           x="0"
           y="0"
           id="tspan104">6</tspan></text>
<text
         transform="translate(447.03527,240.23828)"
         style="font-variant:normal;font-weight:normal;font-size:12px;font-family:Arial;-inkscape-font-specification:ArialMT;writing-mode:lr-tb;fill:#ffffff;fill-opacity:0.8;fill-rule:nonzero;stroke:none"
         id="text110"><tspan
           x="0"
           y="0"
           id="tspan108">0</tspan></text>
<text
         transform="translate(453.70727,240.23828)"
         style="font-variant:normal;font-weight:normal;font-size:12px;font-family:Arial;-inkscape-font-specification:ArialMT;writing-mode:lr-tb;fill:#ffffff;fill-opacity:0.8;fill-rule:nonzero;stroke:none"
         id="text114"><tspan
           x="0"
           y="0"
           id="tspan112">0</tspan></text>
<text
         transform="translate(230.1914,253.59375)"
         style="font-variant:normal;font-weight:normal;font-size:11px;font-family:Arial;-inkscape-font-specification:ArialMT;writing-mode:lr-tb;fill:#fafafa;fill-opacity:0.8;fill-rule:nonzero;stroke:none"
         id="text118"><tspan
           x="0"
           y="0"
           id="tspan116">E</tspan></text>
<text
         transform="translate(237.5174,253.59375)"
         style="font-variant:normal;font-weight:normal;font-size:11px;font-family:Arial;-inkscape-font-specification:ArialMT;writing-mode:lr-tb;fill:#fafafa;fill-opacity:0.8;fill-rule:nonzero;stroke:none"
         id="text122"><tspan
           x="0"
           y="0"
           id="tspan120">p</tspan></text>
<text
         transform="translate(243.6334,253.59375)"
         style="font-variant:normal;font-weight:normal;font-size:11px;font-family:Arial;-inkscape-font-specification:ArialMT;writing-mode:lr-tb;fill:#fafafa;fill-opacity:0.8;fill-rule:nonzero;stroke:none"
         id="text126"><tspan
           x="0"
           y="0"
           id="tspan124">i</tspan></text>
<text
         transform="translate(246.0754,253.59375)"
         style="font-variant:normal;font-weight:normal;font-size:11px;font-family:Arial;-inkscape-font-specification:ArialMT;writing-mode:lr-tb;fill:#fafafa;fill-opacity:0.8;fill-rule:nonzero;stroke:none"
         id="text130"><tspan
           x="0"
           y="0"
           id="tspan128">s</tspan></text>
<text
         transform="translate(251.5754,253.59375)"
         style="font-variant:normal;font-weight:normal;font-size:11px;font-family:Arial;-inkscape-font-specification:ArialMT;writing-mode:lr-tb;fill:#fafafa;fill-opacity:0.8;fill-rule:nonzero;stroke:none"
         id="text134"><tspan
           x="0"
           y="0"
           id="tspan132">o</tspan></text>
<text
         transform="translate(257.6914,253.59375)"
         style="font-variant:normal;font-weight:normal;font-size:11px;font-family:Arial;-inkscape-font-specification:ArialMT;writing-mode:lr-tb;fill:#fafafa;fill-opacity:0.8;fill-rule:nonzero;stroke:none"
         id="text138"><tspan
           x="0"
           y="0"
           id="tspan136">d</tspan></text>
<text
         transform="translate(263.80741,253.59375)"
         style="font-variant:normal;font-weight:normal;font-size:11px;font-family:Arial;-inkscape-font-specification:ArialMT;writing-mode:lr-tb;fill:#fafafa;fill-opacity:0.8;fill-rule:nonzero;stroke:none"
         id="text142"><tspan
           x="0"
           y="0"
           id="tspan140">e</tspan></text>
<text
         transform="translate(272.9704,253.59375)"
         style="font-variant:normal;font-weight:normal;font-size:11px;font-family:Arial;-inkscape-font-specification:ArialMT;writing-mode:lr-tb;fill:#fafafa;fill-opacity:0.8;fill-rule:nonzero;stroke:none"
         id="text146"><tspan
           x="0"
           y="0"
           id="tspan144">n</tspan></text>
<text
         transform="translate(279.0864,253.59375)"
         style="font-variant:normal;font-weight:normal;font-size:11px;font-family:Arial;-inkscape-font-specification:ArialMT;writing-mode:lr-tb;fill:#fafafa;fill-opacity:0.8;fill-rule:nonzero;stroke:none"
         id="text150"><tspan
           x="0"
           y="0"
           id="tspan148">o</tspan></text>
<text
         transform="translate(285.2024,253.59375)"
         style="font-variant:normal;font-weight:normal;font-size:11px;font-family:Arial;-inkscape-font-specification:ArialMT;writing-mode:lr-tb;fill:#fafafa;fill-opacity:0.8;fill-rule:nonzero;stroke:none"
         id="text154"><tspan
           x="0"
           y="0"
           id="tspan152">.</tspan></text>
<text
         transform="rotate(-90,89.804689,61.453127)"
         style="font-variant:normal;font-weight:normal;font-size:11px;font-family:Arial;-inkscape-font-specification:ArialMT;writing-mode:lr-tb;fill:#fafafa;fill-opacity:0.8;fill-rule:nonzero;stroke:none"
         id="text162"><tspan
           x="0"
           y="0"
           id="tspan160">E</tspan></text>
<text
         transform="rotate(-90,86.141687,57.790125)"
         style="font-variant:normal;font-weight:normal;font-size:11px;font-family:Arial;-inkscape-font-specification:ArialMT;writing-mode:lr-tb;fill:#fafafa;fill-opacity:0.8;fill-rule:nonzero;stroke:none"
         id="text166"><tspan
           x="0"
           y="0"
           id="tspan164">p</tspan></text>
<text
         transform="rotate(-90,83.083688,54.732126)"
         style="font-variant:normal;font-weight:normal;font-size:11px;font-family:Arial;-inkscape-font-specification:ArialMT;writing-mode:lr-tb;fill:#fafafa;fill-opacity:0.8;fill-rule:nonzero;stroke:none"
         id="text170"><tspan
           x="0"
           y="0"
           id="tspan168">i</tspan></text>
<text
         transform="rotate(-90,81.862687,53.511125)"
         style="font-variant:normal;font-weight:normal;font-size:11px;font-family:Arial;-inkscape-font-specification:ArialMT;writing-mode:lr-tb;fill:#fafafa;fill-opacity:0.8;fill-rule:nonzero;stroke:none"
         id="text174"><tspan
           x="0"
           y="0"
           id="tspan172">s</tspan></text>
<text
         transform="rotate(-90,79.112687,50.761125)"
         style="font-variant:normal;font-weight:normal;font-size:11px;font-family:Arial;-inkscape-font-specification:ArialMT;writing-mode:lr-tb;fill:#fafafa;fill-opacity:0.8;fill-rule:nonzero;stroke:none"
         id="text178"><tspan
           x="0"
           y="0"
           id="tspan176">o</tspan></text>
<text
         transform="rotate(-90,76.054689,47.703127)"
         style="font-variant:normal;font-weight:normal;font-size:11px;font-family:Arial;-inkscape-font-specification:ArialMT;writing-mode:lr-tb;fill:#fafafa;fill-opacity:0.8;fill-rule:nonzero;stroke:none"
         id="text182"><tspan
           x="0"
           y="0"
           id="tspan180">d</tspan></text>
<text
         transform="rotate(-90,72.99669,44.645129)"
         style="font-variant:normal;font-weight:normal;font-size:11px;font-family:Arial;-inkscape-font-specification:ArialMT;writing-mode:lr-tb;fill:#fafafa;fill-opacity:0.8;fill-rule:nonzero;stroke:none"
         id="text186"><tspan
           x="0"
           y="0"
           id="tspan184">e</tspan></text>
<text
         transform="rotate(-90,68.415186,40.063624)"
         style="font-variant:normal;font-weight:normal;font-size:11px;font-family:Arial;-inkscape-font-specification:ArialMT;writing-mode:lr-tb;fill:#fafafa;fill-opacity:0.8;fill-rule:nonzero;stroke:none"
         id="text190"><tspan
           x="0"
           y="0"
           id="tspan188">r</tspan></text>
<text
         transform="rotate(-90,66.583688,38.232127)"
         style="font-variant:normal;font-weight:normal;font-size:11px;font-family:Arial;-inkscape-font-specification:ArialMT;writing-mode:lr-tb;fill:#fafafa;fill-opacity:0.8;fill-rule:nonzero;stroke:none"
         id="text194"><tspan
           x="0"
           y="0"
           id="tspan192">a</tspan></text>
<text
         transform="rotate(-90,63.52569,35.174128)"
         style="font-variant:normal;font-weight:normal;font-size:11px;font-family:Arial;-inkscape-font-specification:ArialMT;writing-mode:lr-tb;fill:#fafafa;fill-opacity:0.8;fill-rule:nonzero;stroke:none"
         id="text198"><tspan
           x="0"
           y="0"
           id="tspan196">t</tspan></text>
<text
         transform="rotate(-90,62.002191,33.650629)"
         style="font-variant:normal;font-weight:normal;font-size:11px;font-family:Arial;-inkscape-font-specification:ArialMT;writing-mode:lr-tb;fill:#fafafa;fill-opacity:0.8;fill-rule:nonzero;stroke:none"
         id="text202"><tspan
           x="0"
           y="0"
           id="tspan200">i</tspan></text>
<text
         transform="rotate(-90,60.781191,32.429629)"
         style="font-variant:normal;font-weight:normal;font-size:11px;font-family:Arial;-inkscape-font-specification:ArialMT;writing-mode:lr-tb;fill:#fafafa;fill-opacity:0.8;fill-rule:nonzero;stroke:none"
         id="text206"><tspan
           x="0"
           y="0"
           id="tspan204">n</tspan></text>
<text
         transform="rotate(-90,57.723185,29.371623)"
         style="font-variant:normal;font-weight:normal;font-size:11px;font-family:Arial;-inkscape-font-specification:ArialMT;writing-mode:lr-tb;fill:#fafafa;fill-opacity:0.8;fill-rule:nonzero;stroke:none"
         id="text210"><tspan
           x="0"
           y="0"
           id="tspan208">g</tspan></text>
<text
         transform="translate(247.10155,267.99609)"
         style="font-variant:normal;font-weight:normal;font-size:9.89999866px;font-family:Arial;-inkscape-font-specification:ArialMT;writing-mode:lr-tb;fill:#fafafa;fill-opacity:0.8;fill-rule:nonzero;stroke:none"
         id="text218"><tspan
           x="0"
           y="0"
           id="tspan216">S</tspan></text>
<text
         transform="translate(253.69495,267.99609)"
         style="font-variant:normal;font-weight:normal;font-size:9.89999866px;font-family:Arial;-inkscape-font-specification:ArialMT;writing-mode:lr-tb;fill:#fafafa;fill-opacity:0.8;fill-rule:nonzero;stroke:none"
         id="text222"><tspan
           x="0"
           y="0"
           id="tspan220">o</tspan></text>
<text
         transform="translate(259.19935,267.99609)"
         style="font-variant:normal;font-weight:normal;font-size:9.89999866px;font-family:Arial;-inkscape-font-specification:ArialMT;writing-mode:lr-tb;fill:#fafafa;fill-opacity:0.8;fill-rule:nonzero;stroke:none"
         id="text226"><tspan
           x="0"
           y="0"
           id="tspan224">u</tspan></text>
<text
         transform="translate(264.70375,267.99609)"
         style="font-variant:normal;font-weight:normal;font-size:9.89999866px;font-family:Arial;-inkscape-font-specification:ArialMT;writing-mode:lr-tb;fill:#fafafa;fill-opacity:0.8;fill-rule:nonzero;stroke:none"
         id="text230"><tspan
           x="0"
           y="0"
           id="tspan228">r</tspan></text>
<text
         transform="translate(268.00045,267.99609)"
         style="font-variant:normal;font-weight:normal;font-size:9.89999866px;font-family:Arial;-inkscape-font-specification:ArialMT;writing-mode:lr-tb;fill:#fafafa;fill-opacity:0.8;fill-rule:nonzero;stroke:none"
         id="text234"><tspan
           x="0"
           y="0"
           id="tspan232">c</tspan></text>
<text
         transform="translate(272.95045,267.99609)"
         style="font-variant:normal;font-weight:normal;font-size:9.89999866px;font-family:Arial;-inkscape-font-specification:ArialMT;writing-mode:lr-tb;fill:#fafafa;fill-opacity:0.8;fill-rule:nonzero;stroke:none"
         id="text238"><tspan
           x="0"
           y="0"
           id="tspan236">e</tspan></text>
<text
         transform="translate(278.45485,267.99609)"
         style="font-variant:normal;font-weight:normal;font-size:9.89999866px;font-family:Arial;-inkscape-font-specification:ArialMT;writing-mode:lr-tb;fill:#fafafa;fill-opacity:0.8;fill-rule:nonzero;stroke:none"
         id="text242"><tspan
           x="0"
           y="0"
           id="tspan240">:</tspan></text>
<text
         transform="translate(283.93945,267.99609)"
         style="font-variant:normal;font-weight:normal;font-size:9.89999866px;font-family:Arial;-inkscape-font-specification:ArialMT;writing-mode:lr-tb;fill:#fafafa;fill-opacity:0.8;fill-rule:nonzero;stroke:none"
         id="text246"><tspan
           x="0"
           y="0"
           id="tspan244">n</tspan></text>
<text
         transform="translate(289.44385,267.99609)"
         style="font-variant:normal;font-weight:normal;font-size:9.89999866px;font-family:Arial;-inkscape-font-specification:ArialMT;writing-mode:lr-tb;fill:#fafafa;fill-opacity:0.8;fill-rule:nonzero;stroke:none"
         id="text250"><tspan
           x="0"
           y="0"
           id="tspan248">a</tspan></text>
<text
         transform="translate(294.94825,267.99609)"
         style="font-variant:normal;font-weight:normal;font-size:9.89999866px;font-family:Arial;-inkscape-font-specification:ArialMT;writing-mode:lr-tb;fill:#fafafa;fill-opacity:0.8;fill-rule:nonzero;stroke:none"
         id="text254"><tspan
           x="0"
           y="0"
           id="tspan252">t</tspan></text>
<text
         transform="translate(297.69055,267.99609)"
         style="font-variant:normal;font-weight:normal;font-size:9.89999866px;font-family:Arial;-inkscape-font-specification:ArialMT;writing-mode:lr-tb;fill:#fafafa;fill-opacity:0.8;fill-rule:nonzero;stroke:none"
         id="text258"><tspan
           x="0"
           y="0"
           id="tspan256">h</tspan></text>
<text
         transform="translate(303.19495,267.99609)"
         style="font-variant:normal;font-weight:normal;font-size:9.89999866px;font-family:Arial;-inkscape-font-specification:ArialMT;writing-mode:lr-tb;fill:#fafafa;fill-opacity:0.8;fill-rule:nonzero;stroke:none"
         id="text262"><tspan
           x="0"
           y="0"
           id="tspan260">a</tspan></text>
<text
         transform="translate(308.69935,267.99609)"
         style="font-variant:normal;font-weight:normal;font-size:9.89999866px;font-family:Arial;-inkscape-font-specification:ArialMT;writing-mode:lr-tb;fill:#fafafa;fill-opacity:0.8;fill-rule:nonzero;stroke:none"
         id="text266"><tspan
           x="0"
           y="0"
           id="tspan264">n</tspan></text>
<text
         transform="translate(314.20376,267.99609)"
         style="font-variant:normal;font-weight:normal;font-size:9.89999866px;font-family:Arial;-inkscape-font-specification:ArialMT;writing-mode:lr-tb;fill:#fafafa;fill-opacity:0.8;fill-rule:nonzero;stroke:none"
         id="text270"><tspan
           x="0"
           y="0"
           id="tspan268">c</tspan></text>
<text
         transform="translate(319.15375,267.99609)"
         style="font-variant:normal;font-weight:normal;font-size:9.89999866px;font-family:Arial;-inkscape-font-specification:ArialMT;writing-mode:lr-tb;fill:#fafafa;fill-opacity:0.8;fill-rule:nonzero;stroke:none"
         id="text274"><tspan
           x="0"
           y="0"
           id="tspan272">u</tspan></text>
<text
         transform="translate(324.65815,267.99609)"
         style="font-variant:normal;font-weight:normal;font-size:9.89999866px;font-family:Arial;-inkscape-font-specification:ArialMT;writing-mode:lr-tb;fill:#fafafa;fill-opacity:0.8;fill-rule:nonzero;stroke:none"
         id="text278"><tspan
           x="0"
           y="0"
           id="tspan276">n</tspan></text>
<text
         transform="translate(330.16255,267.99609)"
         style="font-variant:normal;font-weight:normal;font-size:9.89999866px;font-family:Arial;-inkscape-font-specification:ArialMT;writing-mode:lr-tb;fill:#fafafa;fill-opacity:0.8;fill-rule:nonzero;stroke:none"
         id="text282"><tspan
           x="0"
           y="0"
           id="tspan280">n</tspan></text>
<text
         transform="translate(335.66695,267.99609)"
         style="font-variant:normal;font-weight:normal;font-size:9.89999866px;font-family:Arial;-inkscape-font-specification:ArialMT;writing-mode:lr-tb;fill:#fafafa;fill-opacity:0.8;fill-rule:nonzero;stroke:none"
         id="text286"><tspan
           x="0"
           y="0"
           id="tspan284">.</tspan></text>
<text
         transform="translate(338.40925,267.99609)"
         style="font-variant:normal;font-weight:normal;font-size:9.89999866px;font-family:Arial;-inkscape-font-specification:ArialMT;writing-mode:lr-tb;fill:#fafafa;fill-opacity:0.8;fill-rule:nonzero;stroke:none"
         id="text290"><tspan
           x="0"
           y="0"
           id="tspan288">c</tspan></text>
<text
         transform="translate(343.35925,267.99609)"
         style="font-variant:normal;font-weight:normal;font-size:9.89999866px;font-family:Arial;-inkscape-font-specification:ArialMT;writing-mode:lr-tb;fill:#fafafa;fill-opacity:0.8;fill-rule:nonzero;stroke:none"
         id="text294"><tspan
           x="0"
           y="0"
           id="tspan292">o</tspan></text>
<text
         transform="translate(348.86365,267.99609)"
         style="font-variant:normal;font-weight:normal;font-size:9.89999866px;font-family:Arial;-inkscape-font-specification:ArialMT;writing-mode:lr-tb;fill:#fafafa;fill-opacity:0.8;fill-rule:nonzero;stroke:none"
         id="text298"><tspan
           x="0"
           y="0"
           id="tspan296">m</tspan></text>
<text
         transform="translate(359.85265,267.99609)"
         style="font-variant:normal;font-weight:normal;font-size:9.89999866px;font-family:Arial;-inkscape-font-specification:ArialMT;writing-mode:lr-tb;fill:#fafafa;fill-opacity:0.8;fill-rule:nonzero;stroke:none"
         id="text302"><tspan
           x="0"
           y="0"
           id="tspan300">(</tspan></text>
<text
         transform="translate(363.14935,267.99609)"
         style="font-variant:normal;font-weight:normal;font-size:9.89999866px;font-family:Arial;-inkscape-font-specification:ArialMT;writing-mode:lr-tb;fill:#fafafa;fill-opacity:0.8;fill-rule:nonzero;stroke:none"
         id="text306"><tspan
           x="0"
           y="0"
           id="tspan304">@</tspan></text>
<text
         transform="translate(373.19785,267.99609)"
         style="font-variant:normal;font-weight:normal;font-size:9.89999866px;font-family:Arial;-inkscape-font-specification:ArialMT;writing-mode:lr-tb;fill:#fafafa;fill-opacity:0.8;fill-rule:nonzero;stroke:none"
         id="text310"><tspan
           x="0"
           y="0"
           id="tspan308">n</tspan></text>
<text
         transform="translate(378.70224,267.99609)"
         style="font-variant:normal;font-weight:normal;font-size:9.89999866px;font-family:Arial;-inkscape-font-specification:ArialMT;writing-mode:lr-tb;fill:#fafafa;fill-opacity:0.8;fill-rule:nonzero;stroke:none"
         id="text314"><tspan
           x="0"
           y="0"
           id="tspan312">a</tspan></text>
<text
         transform="translate(384.20665,267.99609)"
         style="font-variant:normal;font-weight:normal;font-size:9.89999866px;font-family:Arial;-inkscape-font-specification:ArialMT;writing-mode:lr-tb;fill:#fafafa;fill-opacity:0.8;fill-rule:nonzero;stroke:none"
         id="text318"><tspan
           x="0"
           y="0"
           id="tspan316">t</tspan></text>
<text
         transform="translate(386.94895,267.99609)"
         style="font-variant:normal;font-weight:normal;font-size:9.89999866px;font-family:Arial;-inkscape-font-specification:ArialMT;writing-mode:lr-tb;fill:#fafafa;fill-opacity:0.8;fill-rule:nonzero;stroke:none"
         id="text322"><tspan
           x="0"
           y="0"
           id="tspan320">h</tspan></text>
<text
         transform="translate(392.45336,267.99609)"
         style="font-variant:normal;font-weight:normal;font-size:9.89999866px;font-family:Arial;-inkscape-font-specification:ArialMT;writing-mode:lr-tb;fill:#fafafa;fill-opacity:0.8;fill-rule:nonzero;stroke:none"
         id="text326"><tspan
           x="0"
           y="0"
           id="tspan324">c</tspan></text>
<text
         transform="translate(397.40335,267.99609)"
         style="font-variant:normal;font-weight:normal;font-size:9.89999866px;font-family:Arial;-inkscape-font-specification:ArialMT;writing-mode:lr-tb;fill:#fafafa;fill-opacity:0.8;fill-rule:nonzero;stroke:none"
         id="text330"><tspan
           x="0"
           y="0"
           id="tspan328">u</tspan></text>
<text
         transform="translate(402.90775,267.99609)"
         style="font-variant:normal;font-weight:normal;font-size:9.89999866px;font-family:Arial;-inkscape-font-specification:ArialMT;writing-mode:lr-tb;fill:#fafafa;fill-opacity:0.8;fill-rule:nonzero;stroke:none"
         id="text334"><tspan
           x="0"
           y="0"
           id="tspan332">n</tspan></text>
<text
         transform="translate(408.41214,267.99609)"
         style="font-variant:normal;font-weight:normal;font-size:9.89999866px;font-family:Arial;-inkscape-font-specification:ArialMT;writing-mode:lr-tb;fill:#fafafa;fill-opacity:0.8;fill-rule:nonzero;stroke:none"
         id="text338"><tspan
           x="0"
           y="0"
           id="tspan336">)</tspan></text>
<text
         transform="translate(411.70885,267.99609)"
         style="font-variant:normal;font-weight:normal;font-size:9.89999866px;font-family:Arial;-inkscape-font-specification:ArialMT;writing-mode:lr-tb;fill:#fafafa;fill-opacity:0.8;fill-rule:nonzero;stroke:none"
         id="text342"><tspan
           x="0"
           y="0"
           id="tspan340">;</tspan></text>
<text
         transform="translate(417.19345,267.99609)"
         style="font-variant:normal;font-weight:normal;font-size:9.89999866px;font-family:Arial;-inkscape-font-specification:ArialMT;writing-mode:lr-tb;fill:#fafafa;fill-opacity:0.8;fill-rule:nonzero;stroke:none"
         id="text346"><tspan
           x="0"
           y="0"
           id="tspan344">d</tspan></text>
<text
         transform="translate(422.69785,267.99609)"
         style="font-variant:normal;font-weight:normal;font-size:9.89999866px;font-family:Arial;-inkscape-font-specification:ArialMT;writing-mode:lr-tb;fill:#fafafa;fill-opacity:0.8;fill-rule:nonzero;stroke:none"
         id="text350"><tspan
           x="0"
           y="0"
           id="tspan348">a</tspan></text>
<text
         transform="translate(428.20224,267.99609)"
         style="font-variant:normal;font-weight:normal;font-size:9.89999866px;font-family:Arial;-inkscape-font-specification:ArialMT;writing-mode:lr-tb;fill:#fafafa;fill-opacity:0.8;fill-rule:nonzero;stroke:none"
         id="text354"><tspan
           x="0"
           y="0"
           id="tspan352">t</tspan></text>
<text
         transform="translate(430.94455,267.99609)"
         style="font-variant:normal;font-weight:normal;font-size:9.89999866px;font-family:Arial;-inkscape-font-specification:ArialMT;writing-mode:lr-tb;fill:#fafafa;fill-opacity:0.8;fill-rule:nonzero;stroke:none"
         id="text358"><tspan
           x="0"
           y="0"
           id="tspan356">a</tspan></text>
<text
         transform="translate(439.19125,267.99609)"
         style="font-variant:normal;font-weight:normal;font-size:9.89999866px;font-family:Arial;-inkscape-font-specification:ArialMT;writing-mode:lr-tb;fill:#fafafa;fill-opacity:0.8;fill-rule:nonzero;stroke:none"
         id="text362"><tspan
           x="0"
           y="0"
           id="tspan360">f</tspan></text>
<text
         transform="translate(441.93355,267.99609)"
         style="font-variant:normal;font-weight:normal;font-size:9.89999866px;font-family:Arial;-inkscape-font-specification:ArialMT;writing-mode:lr-tb;fill:#fafafa;fill-opacity:0.8;fill-rule:nonzero;stroke:none"
         id="text366"><tspan
           x="0"
           y="0"
           id="tspan364">r</tspan></text>
<text
         transform="translate(445.23024,267.99609)"
         style="font-variant:normal;font-weight:normal;font-size:9.89999866px;font-family:Arial;-inkscape-font-specification:ArialMT;writing-mode:lr-tb;fill:#fafafa;fill-opacity:0.8;fill-rule:nonzero;stroke:none"
         id="text370"><tspan
           x="0"
           y="0"
           id="tspan368">o</tspan></text>
<text
         transform="translate(450.73465,267.99609)"
         style="font-variant:normal;font-weight:normal;font-size:9.89999866px;font-family:Arial;-inkscape-font-specification:ArialMT;writing-mode:lr-tb;fill:#fafafa;fill-opacity:0.8;fill-rule:nonzero;stroke:none"
         id="text374"><tspan
           x="0"
           y="0"
           id="tspan372">m</tspan></text>
<text
         transform="translate(461.72365,267.99609)"
         style="font-variant:normal;font-weight:normal;font-size:9.89999866px;font-family:Arial;-inkscape-font-specification:ArialMT;writing-mode:lr-tb;fill:#fafafa;fill-opacity:0.8;fill-rule:nonzero;stroke:none"
         id="text378"><tspan
           x="0"
           y="0"
           id="tspan376">I</tspan></text>
<text
         transform="translate(464.46594,267.99609)"
         style="font-variant:normal;font-weight:normal;font-size:9.89999866px;font-family:Arial;-inkscape-font-specification:ArialMT;writing-mode:lr-tb;fill:#fafafa;fill-opacity:0.8;fill-rule:nonzero;stroke:none"
         id="text382"><tspan
           x="0"
           y="0"
           id="tspan380">M</tspan></text>
<text
         transform="translate(472.71265,267.99609)"
         style="font-variant:normal;font-weight:normal;font-size:9.89999866px;font-family:Arial;-inkscape-font-specification:ArialMT;writing-mode:lr-tb;fill:#fafafa;fill-opacity:0.8;fill-rule:nonzero;stroke:none"
         id="text386"><tspan
           x="0"
           y="0"
           id="tspan384">D</tspan></text>
<text
         transform="translate(479.86044,267.99609)"
         style="font-variant:normal;font-weight:normal;font-size:9.89999866px;font-family:Arial;-inkscape-font-specification:ArialMT;writing-mode:lr-tb;fill:#fafafa;fill-opacity:0.8;fill-rule:nonzero;stroke:none"
         id="text390"><tspan
           x="0"
           y="0"
           id="tspan388">b</tspan></text>
</g></g></svg>